<svg width="162" height="287" viewBox="0 0 162 287" fill="none" xmlns="http://www.w3.org/2000/svg">
<path fill-rule="evenodd" clip-rule="evenodd" d="M17.1615 12.8448C50.8672 7.75716 73.6315 7.90911 98.4879 26.6879C107.301 33.3459 114.089 39.3781 118.755 46.8108C122.582 52.9085 125.134 60.2053 125.874 69.994C117.569 66.7293 107.625 65.1424 95.8793 65.7987C80.629 66.6509 69.2677 71.1795 62.751 78.7428C56.0069 86.57 55.2961 96.6452 59.4018 106.256C63.9138 116.817 74.4606 121.326 84.4955 122.471C94.5894 123.623 105.599 121.609 113.301 117.615C122.552 112.819 128.528 107.258 132.004 100.055C133.86 96.2096 134.911 92.0741 135.482 87.6557C142.994 94.7605 147.264 104.332 149.085 114.093C152.932 134.721 152.286 150.175 148.313 163.634C144.323 177.147 136.858 189.077 126.336 202.534C117.113 214.332 100.783 229.253 81.0165 241.204C63.5747 251.75 43.8357 259.755 24.2801 261.503C24.837 261.028 25.3696 260.561 25.8765 260.117L25.8772 260.116L26.1729 259.857C27.7468 258.479 29.1093 257.309 30.5766 256.311C32.8601 254.758 33.4525 251.648 31.8997 249.365C30.3469 247.081 27.237 246.489 24.9535 248.042C22.9171 249.426 21.133 250.978 19.5848 252.334L19.3888 252.505L19.3887 252.506C17.8601 253.845 16.5609 254.983 15.1603 255.983C14.2195 256.655 13.2644 257.264 12.184 257.952L12.1836 257.953C11.7377 258.237 11.2705 258.535 10.7742 258.856C9.18378 259.886 7.39834 261.098 5.76441 262.559C5.76404 262.56 5.76362 262.56 5.76325 262.56L5.76372 262.56C5.75976 262.563 5.73849 262.581 5.69433 262.616C5.63973 262.659 5.56631 262.715 5.46837 262.787C5.29148 262.916 5.09889 263.052 4.85182 263.225L4.71502 263.322L4.70468 263.329C4.15987 263.712 3.31201 264.309 2.57587 264.973C2.06363 265.436 0.502644 266.854 0.0970516 269.06C-0.157318 270.444 0.0795264 271.936 0.911913 273.244C1.6575 274.415 2.66861 275.109 3.43354 275.515C10.7641 279.409 18.1056 283.009 25.7954 286.305C28.3336 287.393 31.273 286.217 32.3608 283.679C33.4486 281.141 32.2728 278.201 29.7346 277.114C25.8373 275.443 22.0221 273.687 18.2378 271.843C42.1831 271.383 66.0335 261.949 86.1906 249.761C106.878 237.253 124.162 221.551 134.214 208.694C145.042 194.844 153.392 181.747 157.903 166.465C162.431 151.128 162.973 134.017 158.915 112.26C156.716 100.468 151.299 88.2194 141.034 79.187C139.487 77.8259 137.841 76.5478 136.094 75.3619C135.985 61.2129 132.872 50.4922 127.224 41.4946C121.552 32.4574 113.543 25.5289 104.516 18.709C76.368 -2.55646 50.1696 -2.25083 15.669 2.95681C12.9385 3.36896 11.0591 5.91658 11.4713 8.64707C11.8834 11.3776 14.431 13.257 17.1615 12.8448ZM96.4372 75.7831C108.902 75.0866 118.558 77.2222 126.002 81.0004C125.737 87.1263 124.886 91.7971 122.998 95.7089C120.727 100.415 116.654 104.612 108.698 108.738C102.9 111.744 93.9101 113.48 85.629 112.535C77.2889 111.584 71.0857 108.15 68.5977 102.327C65.7034 95.552 66.5183 89.6903 70.3268 85.2703C74.3625 80.5864 82.5805 76.5574 96.4372 75.7831Z" fill="#FBBA00"/>
</svg>
