<svg width="65" height="198" viewBox="0 0 65 198" fill="none" xmlns="http://www.w3.org/2000/svg">
<path fill-rule="evenodd" clip-rule="evenodd" d="M54.9778 9.01684C57.1961 7.37222 57.6611 4.24074 56.0165 2.02247C54.3719 -0.195792 51.2404 -0.660824 49.0222 0.983794C18.3404 23.7312 0.0563965 48.804 0.0563965 83.8892C0.0563965 138.482 21.5701 169.261 46.1729 187.475C44.4522 187.516 42.7245 187.525 41.0758 187.535H41.0742C40.5397 187.538 40.0134 187.541 39.4984 187.545C38.1648 187.555 36.8824 187.573 35.7911 187.621C34.8116 187.664 33.5923 187.744 32.5845 187.985C29.8992 188.629 28.2441 191.328 28.8878 194.013C29.5316 196.698 32.2303 198.353 34.9157 197.71C34.9107 197.711 34.9158 197.71 34.9321 197.708C35.0155 197.697 35.3929 197.648 36.2327 197.611C37.1251 197.572 38.2474 197.555 39.5757 197.544C40.0486 197.541 40.5452 197.538 41.0602 197.535C43.3681 197.522 46.0465 197.507 48.6185 197.401C51.6942 197.275 55.0512 197.007 57.709 196.314C58.9956 195.978 60.6105 195.424 61.9696 194.378C63.5167 193.188 64.9971 191.087 64.6806 188.245C63.8965 181.206 61.0512 175.223 58.4683 169.793C58.0344 168.88 57.6078 167.984 57.1997 167.1C56.0418 164.593 53.0709 163.499 50.564 164.657C48.057 165.815 46.9634 168.786 48.1212 171.293C48.6086 172.348 49.0837 173.355 49.5417 174.326L49.5421 174.327C50.3487 176.036 51.1018 177.632 51.7739 179.178C29.7916 162.772 10.0564 134.954 10.0564 83.8892C10.0564 53.1966 25.6615 30.7519 54.9778 9.01684Z" fill="#FBBA00"/>
</svg>
