<svg width="1069" height="750" viewBox="0 0 1069 750" fill="none" xmlns="http://www.w3.org/2000/svg">
<g clip-path="url(#clip0_117_232)">
<g opacity="0.6">
<path opacity="0.6" d="M275.608 636.609C275.608 636.609 238.033 378.52 168.637 391.34C99.241 404.16 232.002 558.697 240.563 634.174L275.608 636.609Z" fill="#55A233"/>
</g>
<path d="M41.7174 578.284C69.6907 590.46 56.016 633.948 90.9566 632.313C125.897 630.678 123.558 628.034 136.695 645.742C136.695 645.742 140.161 661.032 152.935 666.007C203.352 685.646 290.184 622.38 244.151 568.734C240.824 564.855 235.329 562.524 229.194 560.263C195.848 547.999 181.983 561.706 162.952 515.592C143.922 469.478 95.5322 520.463 72.8277 513.853C50.1232 507.243 31.2317 496.18 8.33656 517.123C-14.5586 538.067 13.7614 566.125 41.7174 578.284Z" fill="#55A233"/>
<g opacity="0.5">
<path opacity="0.5" d="M216.317 621.841L217.738 620.415C217.114 619.788 153.611 557.045 2.82506 523.211L2.39177 525.177C152.675 558.888 215.693 621.215 216.317 621.841Z" fill="#E4EECF"/>
<path opacity="0.5" d="M133.679 544.259C157.25 530.204 163.611 516.566 163.871 515.992L162.034 515.175C162.034 515.297 155.621 528.83 132.657 542.537L133.679 544.259Z" fill="#E4EECF"/>
<path opacity="0.5" d="M125.984 564.942C133.575 556.123 135.88 541.702 132.657 523.194C131.109 514.53 128.711 506.04 125.499 497.849L123.661 498.615C123.835 499.067 141.912 543.32 124.476 563.585L125.984 564.942Z" fill="#E4EECF"/>
<path opacity="0.5" d="M86.7796 553.461C89.57 551.948 91.1125 550.904 91.1818 550.852L90.0379 549.2C89.726 549.426 57.1078 571.326 17.4182 562.124L16.9676 564.072C49.0139 571.5 76.4499 559.15 86.7796 553.461Z" fill="#E4EECF"/>
<path opacity="0.5" d="M58.0959 595.174C66.5503 589.101 72.7756 580.402 75.8088 570.421C77.0754 566.327 77.5864 562.036 77.3167 557.758L75.3236 557.984C75.3236 558.193 77.334 578.197 56.9 593.574L58.0959 595.174Z" fill="#E4EECF"/>
</g>
<g opacity="0.6">
<path opacity="0.6" d="M793.392 636.609C793.392 636.609 830.967 378.52 900.363 391.34C969.759 404.16 836.998 558.697 828.436 634.174L793.392 636.609Z" fill="#55A233"/>
</g>
<path d="M1027.28 578.284C999.309 590.46 1012.98 633.948 978.043 632.313C943.103 630.678 945.443 628.034 932.305 645.742C932.305 645.742 928.839 661.032 916.065 666.007C865.648 685.646 778.816 622.38 824.849 568.734C828.176 564.855 833.671 562.524 839.806 560.263C873.152 547.999 887.017 561.706 906.048 515.592C925.078 469.478 973.468 520.463 996.172 513.853C1018.88 507.243 1037.77 496.18 1060.66 517.123C1083.56 538.067 1055.24 566.125 1027.28 578.284Z" fill="#55A233"/>
<g opacity="0.5">
<path opacity="0.5" d="M852.683 621.841L851.262 620.415C851.886 619.788 915.389 557.045 1066.17 523.211L1066.61 525.177C916.325 558.888 853.307 621.215 852.683 621.841Z" fill="#E4EECF"/>
<path opacity="0.5" d="M935.321 544.259C911.75 530.204 905.389 516.566 905.129 515.992L906.966 515.175C906.966 515.297 913.379 528.83 936.43 542.537L935.321 544.259Z" fill="#E4EECF"/>
<path opacity="0.5" d="M943.016 564.942C935.425 556.123 933.12 541.702 936.343 523.194C937.891 514.53 940.289 506.04 943.501 497.849L945.339 498.615C945.165 499.067 927.088 543.32 944.524 563.585L943.016 564.942Z" fill="#E4EECF"/>
<path opacity="0.5" d="M982.22 553.461C979.43 551.948 977.887 550.904 977.818 550.852L978.962 549.2C979.274 549.426 1011.81 571.326 1051.58 562.124L1052.03 564.072C1020 571.5 992.55 559.15 982.22 553.461Z" fill="#E4EECF"/>
<path opacity="0.5" d="M1010.92 595.174C1002.47 589.101 996.242 580.402 993.209 570.421C991.942 566.327 991.431 562.036 991.701 557.758L993.694 557.984C993.694 558.193 991.683 578.197 1012.12 593.574L1010.92 595.174Z" fill="#E4EECF"/>
</g>
<path d="M1007.33 680.027C1007.33 718.644 799.683 749.938 543.538 749.938C287.394 749.938 79.743 718.627 79.743 680.027C79.743 641.428 287.394 610.169 543.538 610.169C799.683 610.169 1007.33 641.48 1007.33 680.027Z" fill="#95C358"/>
<path d="M286.492 709.825L286.18 709.077C288.074 707.049 289.349 704.52 289.855 701.788C290.014 700.486 289.804 699.166 289.248 697.979C288.867 697.161 288.399 696.761 287.827 696.761C285.054 696.761 281.05 705.807 280.998 705.894L280.27 707.633L280.496 705.667C280.496 705.58 281.362 697.631 279.612 695.23C279.334 694.896 278.941 694.678 278.511 694.62C278.081 694.562 277.645 694.668 277.289 694.917C276.73 695.241 276.247 695.682 275.873 696.211C275.499 696.739 275.243 697.342 275.123 697.979C273.962 702.345 276.076 709.251 276.093 709.32L275.591 709.703C275.504 709.407 273.338 702.362 274.603 697.631C274.75 696.907 275.048 696.222 275.478 695.622C275.909 695.022 276.461 694.521 277.099 694.152C277.317 693.989 277.565 693.871 277.829 693.806C278.093 693.742 278.368 693.731 278.636 693.774C278.905 693.818 279.162 693.916 279.392 694.061C279.622 694.207 279.82 694.397 279.976 694.621C281.449 696.604 281.362 701.579 281.189 704.137C282.489 701.51 285.452 696.048 287.827 695.996C288.589 695.996 289.231 696.518 289.733 697.579C290.389 698.977 290.635 700.533 290.444 702.067C289.905 704.983 288.532 707.679 286.492 709.825Z" fill="#002B34"/>
<path d="M171.497 692.604C171.409 691.834 171.58 691.056 171.982 690.394C172.459 689.819 173.062 689.362 173.745 689.06C174.428 688.758 175.171 688.619 175.916 688.655C174.183 687.716 172.034 686.167 171.583 684.184C171.399 683.401 171.491 682.577 171.843 681.853C173.871 677.539 180.717 684.48 180.995 684.776L180.683 685.524C178.845 683.628 173.75 679.349 172.294 682.393C172.062 682.855 171.995 683.383 172.103 683.889C172.641 686.202 176.592 688.185 178.065 688.759L177.979 689.629C177.979 689.629 173.663 688.985 172.381 691.021C172.112 691.464 171.997 691.983 172.051 692.499L171.497 692.604Z" fill="#002B34"/>
<path d="M347.309 693.665L346.737 693.578C346.804 693.058 346.694 692.531 346.425 692.082C345.143 690.064 340.862 690.69 340.81 690.69L340.723 689.82C342.196 689.246 346.148 687.263 346.685 684.95C346.803 684.444 346.736 683.913 346.495 683.454C345.073 680.427 339.961 684.689 338.106 686.585L337.794 685.854C338.089 685.559 344.918 678.601 346.963 682.932C347.311 683.65 347.403 684.467 347.223 685.246C346.755 687.229 344.554 688.725 342.872 689.716C343.62 689.685 344.364 689.825 345.049 690.126C345.734 690.428 346.341 690.883 346.824 691.456C347.215 692.122 347.384 692.895 347.309 693.665Z" fill="#002B34"/>
<path d="M975.218 671.469L974.646 671.364C974.704 670.851 974.594 670.332 974.334 669.886C973.052 667.851 968.771 668.494 968.719 668.494V667.624C970.192 667.05 974.144 665.067 974.681 662.754C974.79 662.248 974.723 661.72 974.49 661.258C973.069 658.214 967.956 662.493 966.102 664.389L965.79 663.641C966.085 663.345 972.913 656.405 974.941 660.736C975.301 661.451 975.394 662.272 975.201 663.05C974.75 665.033 972.549 666.529 970.868 667.52C971.615 667.487 972.36 667.627 973.045 667.928C973.731 668.23 974.338 668.685 974.82 669.26C975.181 669.935 975.321 670.709 975.218 671.469Z" fill="#002B34"/>
<path d="M911.785 700.501C911.871 698.548 911.256 696.628 910.051 695.091C907.764 692.812 904.072 694.9 904.037 694.917L902.737 695.665L903.656 694.065C903.656 694.065 906.325 689.42 905.771 686.081C905.694 685.483 905.475 684.912 905.131 684.419C904.787 683.925 904.328 683.522 903.795 683.245C899.132 680.688 895.319 695.596 895.129 696.326L894.505 695.944C894.952 694.188 894.922 692.344 894.418 690.603C894.183 689.988 893.767 689.459 893.225 689.086C892.684 688.713 892.042 688.514 891.385 688.516C890.811 688.411 890.218 688.504 889.703 688.778C889.187 689.053 888.779 689.493 888.543 690.029C888.009 691.976 888.009 694.031 888.543 695.978L887.902 696.361C887.3 694.075 887.342 691.666 888.023 689.403C888.293 688.729 888.783 688.168 889.413 687.811C890.043 687.453 890.775 687.322 891.489 687.437C892.274 687.454 893.035 687.709 893.672 688.169C894.31 688.628 894.793 689.271 895.059 690.012C895.372 690.805 895.543 691.647 895.562 692.499C897.105 687.768 900.242 680.114 904.089 682.236C904.746 682.594 905.308 683.104 905.727 683.724C906.146 684.345 906.411 685.058 906.498 685.802C906.678 688.439 906.133 691.075 904.921 693.421C905.82 693.002 906.82 692.85 907.803 692.983C908.786 693.115 909.71 693.527 910.467 694.169C911.892 695.923 912.637 698.135 912.564 700.397L911.785 700.501Z" fill="#002B34"/>
<path d="M657.546 720.923C657.304 720.697 651.757 715.391 651.757 710.747C651.742 710.074 651.869 709.405 652.128 708.785C652.388 708.164 652.776 707.606 653.265 707.146C653.682 706.658 654.247 706.321 654.873 706.186C655.499 706.051 656.152 706.125 656.732 706.398C659.539 707.737 661.567 713.356 662.122 714.974C664.981 712.312 667.113 711.651 668.448 713.06C670.372 715.043 669.904 720.383 669.869 720.61L669.314 720.47C669.314 720.47 669.765 715.478 668.136 713.791C666.957 712.556 664.947 713.304 662.139 715.982L661.879 716.243L661.74 715.791C661.74 715.791 659.557 708.677 656.541 707.25C656.042 707.024 655.484 706.966 654.949 707.085C654.415 707.204 653.933 707.494 653.577 707.911C653.18 708.268 652.864 708.705 652.648 709.194C652.433 709.683 652.324 710.212 652.329 710.747C652.329 714.904 657.789 720.105 657.858 720.157L657.546 720.923Z" fill="#002B34"/>
<path d="M587.561 699.753C586.015 697.168 584.665 694.47 583.523 691.682C581.062 685.576 580.49 680.723 581.79 677.261C582.275 675.974 582.864 675.383 583.523 675.522C585.793 675.939 588.254 685.159 589.537 690.655C589.121 683.784 588.635 670.216 591.027 665.624C591.181 665.218 591.435 664.858 591.765 664.578C592.096 664.298 592.492 664.108 592.916 664.024C593.627 663.937 594.216 664.354 594.649 665.207C596.816 669.399 594.857 684.219 593.783 691.16C594.597 689.125 595.724 686.863 596.885 686.602C597.44 686.481 597.873 686.794 598.116 687.507C598.809 689.525 597.856 694.656 595.031 699.77L594.597 699.179C597.37 694.169 598.064 689.42 597.613 687.924C597.492 687.542 597.284 687.403 596.972 687.472C595.481 687.803 593.731 692.882 593.194 694.813L592.656 694.517C592.656 694.274 596.816 670.825 594.216 665.763C594.122 665.504 593.95 665.28 593.723 665.124C593.496 664.968 593.226 664.888 592.951 664.893C592.614 664.963 592.301 665.118 592.04 665.344C591.779 665.569 591.58 665.857 591.46 666.181C588.427 671.991 590.369 694.343 590.386 694.569L589.849 694.761C588.843 689.803 585.724 676.809 583.471 676.409C583.037 676.322 582.639 676.774 582.275 677.748C579.415 685.333 587.873 699.022 587.96 699.162L587.561 699.753Z" fill="#002B34"/>
<path d="M389.443 657.901C389.443 657.901 378.073 639.74 381.99 629.303C385.907 618.866 392.597 651.586 392.597 651.586C392.597 651.586 389.131 612.952 396.271 612.274C403.412 611.595 396.271 651.586 396.271 651.586C396.271 651.586 398.906 642.263 401.471 641.689C404.036 641.115 403.308 649.603 398.715 657.901H389.443Z" fill="#95C358"/>
<path d="M390.257 658.353C389.737 657.5 377.172 637.183 381.73 625.111C382.458 623.215 383.325 622.328 384.312 622.502C386.271 622.867 388.576 627.72 391.158 636.974C391.956 639.792 392.649 642.61 393.186 644.941C392.562 634.835 391.834 614.674 395.387 607.873C395.611 607.271 395.985 606.737 396.474 606.323C396.963 605.909 397.549 605.628 398.178 605.507C398.735 605.48 399.286 605.635 399.749 605.948C400.211 606.262 400.56 606.717 400.743 607.246C403.932 613.439 401.055 635.339 399.478 645.515C400.656 642.506 402.337 639.166 404.036 638.783C404.851 638.592 405.492 639.079 405.769 640.123C406.809 643.097 405.388 650.682 401.211 658.231L400.57 657.379C404.677 649.951 405.769 642.941 405.041 640.749C404.851 640.175 404.539 639.966 404.071 640.071C401.869 640.575 399.304 648.072 398.49 650.925L397.71 650.473C397.71 650.386 399.287 641.584 400.327 631.947C401.696 619.336 401.592 611.073 400.015 607.994C399.53 607.072 398.923 606.638 398.143 606.725C397.363 606.812 396.566 607.42 395.942 608.621C391.47 617.214 394.33 650.229 394.365 650.56L393.55 650.856C392.06 643.515 387.467 624.328 384.122 623.719C383.48 623.598 382.909 624.259 382.389 625.702C378.16 636.905 390.656 657.153 390.794 657.344L390.257 658.353Z" fill="#002B34"/>
<path d="M630.041 634.417C630.041 634.417 615.205 610.691 620.301 597.175C625.396 583.659 634.01 626.207 634.01 626.207C634.01 626.207 629.556 575.883 638.793 575.014C648.031 574.144 638.793 626.207 638.793 626.207C638.793 626.207 642.26 614.03 645.57 613.317C648.88 612.604 647.962 623.615 641.982 634.417H630.041Z" fill="#95C358"/>
<path d="M631.029 635.009C630.318 633.896 613.992 607.455 619.919 591.73C620.855 589.243 621.982 588.095 623.264 588.338C625.812 588.79 628.828 595.14 632.19 607.177C633.213 610.847 634.131 614.518 634.842 617.614C634.01 604.429 633.109 578.197 637.684 569.343C637.977 568.558 638.465 567.861 639.102 567.319C639.739 566.777 640.504 566.407 641.324 566.247C642.054 566.225 642.772 566.435 643.376 566.848C643.98 567.26 644.438 567.853 644.686 568.543C648.829 576.614 645.085 605.072 642.953 618.466C644.478 614.552 646.662 610.186 648.898 609.769C649.955 609.525 650.787 610.134 651.255 611.508C652.607 615.387 650.752 625.268 645.31 635.096L644.496 633.983C649.834 624.311 651.307 615.196 650.302 612.326C650.059 611.595 649.66 611.317 649.054 611.439C646.177 612.1 642.832 621.876 641.792 625.564L640.769 624.989C640.769 624.885 642.814 613.404 644.236 600.863C645.969 584.424 645.882 573.657 643.837 569.673C643.213 568.456 642.416 567.934 641.393 567.934C640.371 567.934 639.348 568.856 638.534 570.421C632.693 581.606 636.436 624.607 636.471 625.042L635.414 625.407C633.473 615.857 627.511 590.86 623.143 590.078C622.311 589.939 621.566 590.773 620.855 592.652C615.344 607.247 631.636 633.617 631.792 633.878L631.029 635.009Z" fill="#002B34"/>
<path d="M138.203 662.597C138.203 662.597 126.816 644.367 130.733 633.983C134.65 623.598 141.288 656.283 141.288 656.283C141.288 656.283 137.822 617.649 144.962 616.97C152.103 616.292 144.962 656.283 144.962 656.283C144.962 656.283 147.597 646.959 150.162 646.385C152.727 645.811 151.999 654.283 147.406 662.597H138.203Z" fill="#95C358"/>
<path d="M139.017 663.049C138.48 662.197 125.932 641.88 130.49 629.808C131.218 627.912 132.067 627.025 133.055 627.199C135.031 627.546 137.336 632.417 139.988 641.671C140.768 644.489 141.478 647.307 142.016 649.638C141.392 639.514 140.664 619.371 144.217 612.569C144.439 611.965 144.813 611.429 145.302 611.012C145.79 610.594 146.378 610.31 147.007 610.186C147.563 610.167 148.11 610.326 148.571 610.638C149.032 610.95 149.382 611.401 149.572 611.926C152.761 618.118 149.884 640.019 148.307 650.195C149.486 647.185 151.149 643.845 152.865 643.463C153.68 643.271 154.321 643.741 154.685 644.785C155.725 647.777 154.287 655.361 150.127 662.91L149.486 662.058C153.593 654.63 154.685 647.62 153.957 645.411C153.767 644.854 153.455 644.646 152.987 644.75C150.786 645.237 148.22 652.752 147.406 655.604L146.626 655.152C146.626 655.065 148.203 646.263 149.243 636.609C150.612 623.998 150.508 615.735 148.931 612.674C148.446 611.734 147.839 611.317 147.059 611.404C146.279 611.491 145.482 612.1 144.858 613.3C140.369 621.876 143.246 654.909 143.281 655.239L142.466 655.535C140.976 648.194 136.383 628.99 133.038 628.399C132.397 628.277 131.825 628.938 131.305 630.382C127.058 641.584 139.572 661.832 139.711 662.023L139.017 663.049Z" fill="#002B34"/>
<path d="M443.119 731.151C440.834 727.33 438.841 723.341 437.157 719.218C433.517 710.155 432.651 702.971 434.574 697.84C435.302 695.926 436.169 695.056 437.157 695.23C439.115 695.578 441.438 700.449 444.089 709.738C444.887 712.556 445.58 715.374 446.135 717.722C445.493 707.581 444.765 687.385 448.318 680.566C448.547 679.963 448.924 679.428 449.415 679.011C449.907 678.594 450.495 678.309 451.126 678.183C451.684 678.166 452.233 678.324 452.696 678.636C453.159 678.948 453.513 679.398 453.708 679.923C456.898 686.133 454.003 708.068 452.426 718.348C453.604 715.321 455.286 711.982 457.001 711.582C457.816 711.408 458.457 711.877 458.821 712.921C459.861 715.913 458.423 723.514 454.246 731.099L453.622 730.229C457.729 722.784 458.821 715.774 458.093 713.547C457.903 712.991 457.591 712.782 457.123 712.886C454.904 713.373 452.339 720.905 451.525 723.758L450.745 723.306C450.745 723.219 452.322 714.4 453.362 704.728C454.731 692.099 454.627 683.854 453.05 680.74C452.565 679.801 451.958 679.383 451.178 679.453C450.398 679.523 449.601 680.166 448.977 681.366C444.488 689.977 447.348 723.114 447.382 723.393L446.568 723.688C445.077 716.33 440.484 697.109 437.122 696.5C436.481 696.378 435.909 697.022 435.389 698.483C431.143 709.72 443.673 730.003 443.812 730.194L443.119 731.151Z" fill="#002B34"/>
<path d="M499.915 194.968C506.05 188.897 492.514 168.789 492.514 168.789C490.174 167.136 446.325 201.839 401.523 187.506C385.56 182.426 363.497 154.455 361.903 150.228C361.695 149.672 326.563 162.405 326.563 162.405C329.44 169.954 332.785 193.716 349.961 209.684C385.491 242.509 467.123 239.308 499.915 194.968Z" fill="#FCDAC8"/>
<path d="M291.311 647.638C291.311 647.638 291.605 659.814 299.821 663.293C308.036 666.772 331.798 669.834 322.924 677.661C317.828 682.149 293.789 679.244 287.013 679.244C280.236 679.244 273.858 682.201 268.814 677.661C263.268 672.634 268.814 647.69 268.814 647.69C272.272 649.452 276.067 650.448 279.941 650.612C287.515 650.369 291.311 647.638 291.311 647.638Z" fill="#002B34"/>
<path d="M362.111 280.29C362.111 280.29 363.757 335.224 346.287 440.603C333.669 516.688 318.781 593.348 311.485 630.104C310.286 636.427 307.001 642.162 302.159 646.384C297.317 650.606 291.201 653.07 284.794 653.378L277.775 653.674C274.402 653.764 271.048 653.139 267.932 651.84C264.816 650.541 262.008 648.596 259.692 646.134C257.376 643.671 255.604 640.746 254.491 637.549C253.378 634.352 252.949 630.956 253.233 627.581L270.946 378.937L275.314 297.181L362.111 280.29Z" fill="#3A52A0"/>
<path d="M213.578 647.638C213.578 647.638 213.89 659.814 222.088 663.293C230.286 666.772 254.082 669.834 245.191 677.661C240.096 682.149 216.074 679.244 209.28 679.244C202.486 679.244 196.143 682.201 191.099 677.661C185.553 672.634 191.099 647.69 191.099 647.69C194.55 649.453 198.339 650.449 202.209 650.612C209.8 650.369 213.578 647.638 213.578 647.638Z" fill="#002B34"/>
<path d="M284.395 280.29C284.395 280.29 286.025 335.224 268.554 440.603C255.954 516.688 241.066 593.348 233.752 630.104C232.562 636.416 229.292 642.144 224.467 646.365C219.641 650.587 213.541 653.057 207.148 653.378L200.129 653.674C196.755 653.767 193.4 653.144 190.283 651.846C187.166 650.547 184.357 648.603 182.04 646.14C179.723 643.677 177.951 640.75 176.839 637.552C175.727 634.354 175.3 630.956 175.587 627.581L193.283 378.955L197.65 297.198L284.395 280.29Z" fill="#3A52A0"/>
<path d="M189.019 340.547C189.175 347.174 229.107 349.801 278.503 348.27C327.898 346.739 367.362 339.868 367.189 333.241C367.015 326.613 327.326 322.804 277.896 324.265C228.466 325.726 188.846 333.867 189.019 340.547Z" fill="#002B34"/>
<path d="M201.099 152.855C201.099 152.855 209.765 118.065 274.274 117.769C367.189 117.265 358.592 203.005 367.189 333.189C367.189 333.189 275.66 320.195 188.967 338.859C188.967 338.807 180.925 205.944 201.099 152.855Z" fill="#FBD82F"/>
<path d="M177.32 147.88L219.402 171.241C219.402 171.241 311.554 179.643 336.009 175.608C360.464 171.572 367.206 153.533 367.206 153.533C367.206 153.533 341.209 126.467 296.874 119.248C292.715 118.569 288.382 118.065 283.91 117.769C276.453 117.257 268.965 117.409 261.535 118.222C205.415 124.571 177.32 147.88 177.32 147.88Z" fill="#FBD82F"/>
<path d="M265.417 109.82L270.27 94.0599L271.691 89.485L280.01 62.5054L281.12 89.3284L281.761 105.436L281.969 110.533C282.108 114.012 284.222 114.725 286.77 117.734C287.81 118.952 294.448 126.328 286.908 129.667C277.549 133.825 260.01 127.528 253.354 119.23C253.406 119.283 263.84 114.916 265.417 109.82Z" fill="#FCD7B7"/>
<path d="M359.407 338.546C359.407 338.546 305.938 322.734 195.016 344.426L194.167 360.429L356.634 366.187L359.407 338.546Z" fill="#3A52A0"/>
<path d="M176.454 148.854C172.883 153.916 178.187 163.935 188.187 171.207C198.188 178.478 209.28 180.287 212.85 175.225C216.421 170.163 211.117 160.143 201.099 152.855C191.082 145.566 180.007 143.792 176.454 148.854Z" fill="#002B34"/>
<path d="M139.364 364.778C138.363 364.964 137.476 365.541 136.897 366.382C136.319 367.223 136.097 368.26 136.279 369.266L142.224 401.62C142.409 402.625 142.984 403.516 143.822 404.096C144.66 404.676 145.693 404.9 146.695 404.717C147.696 404.522 148.58 403.941 149.157 403.098C149.734 402.255 149.958 401.218 149.78 400.211L143.835 367.874C143.65 366.869 143.075 365.979 142.237 365.399C141.399 364.818 140.366 364.595 139.364 364.778Z" fill="#FCD7B7"/>
<path d="M149.035 362.986C148.034 363.172 147.147 363.749 146.569 364.59C145.99 365.432 145.768 366.469 145.95 367.474L152.588 403.656C152.778 404.658 153.353 405.546 154.19 406.125C155.027 406.705 156.058 406.93 157.06 406.752C158.061 406.566 158.948 405.989 159.526 405.148C160.104 404.307 160.327 403.27 160.145 402.264L153.507 366.082C153.321 365.078 152.746 364.187 151.908 363.607C151.07 363.027 150.037 362.803 149.035 362.986Z" fill="#FCD7B7"/>
<path d="M148.163 343.693L147.264 344.729C145.579 346.671 145.782 349.616 147.717 351.307L166.476 367.696C168.411 369.387 171.345 369.183 173.029 367.241L173.928 366.204C175.613 364.262 175.41 361.318 173.475 359.627L154.716 343.238C152.781 341.547 149.847 341.751 148.163 343.693Z" fill="#FCD7B7"/>
<path d="M158.706 361.195C157.705 361.381 156.818 361.957 156.24 362.799C155.661 363.64 155.439 364.677 155.621 365.682L160.942 394.697C161.131 395.699 161.708 396.585 162.545 397.162C163.383 397.739 164.414 397.959 165.413 397.776C166.415 397.59 167.302 397.013 167.88 396.172C168.458 395.331 168.681 394.294 168.499 393.288L163.178 364.291C162.988 363.288 162.412 362.401 161.575 361.821C160.738 361.242 159.707 361.016 158.706 361.195Z" fill="#FCD7B7"/>
<path d="M129.416 347.505C129.416 347.505 121.928 368.205 130.161 381.495C133.021 386.087 161.358 380.033 162.952 374.189C164.547 368.344 159.07 349.244 159.07 349.244L129.416 347.505Z" fill="#FCD7B7"/>
<path d="M129.762 366.517C128.761 366.703 127.874 367.28 127.296 368.122C126.717 368.963 126.495 370 126.677 371.005L131.998 399.951C132.187 400.952 132.764 401.838 133.601 402.415C134.439 402.992 135.47 403.213 136.47 403.03C137.464 402.839 138.344 402.263 138.918 401.426C139.492 400.59 139.715 399.559 139.537 398.559L134.216 369.614C134.031 368.612 133.459 367.725 132.624 367.145C131.79 366.565 130.761 366.34 129.762 366.517Z" fill="#FCD7B7"/>
<path d="M164.893 351.923C168.758 309.131 177.65 247.918 197.997 199.456C202.711 188.219 204.67 184.009 208.396 177.869C211.36 172.946 206.056 162.092 197.702 156.995C189.868 152.142 177.65 152.942 175.726 155.342C172.433 159.43 168.932 167.258 163.472 179.695C144.511 222.887 133.159 278.673 128.566 350.601L164.893 351.923Z" fill="#FCD7B7"/>
<path d="M301.432 52.3815C302.459 57.2328 302.459 62.2464 301.432 67.0976C299.699 75.2733 291.449 55.1647 291.449 55.1647L301.432 52.3815Z" fill="#002B34"/>
<path d="M302.472 69.4634C300.41 53.634 288.122 42.2055 275.054 43.9276C261.986 45.6497 253.06 59.8788 255.122 75.6908C257.185 91.5029 269.473 102.949 282.541 101.227C295.609 99.5046 304.5 85.2755 302.472 69.4634Z" fill="#FCD7B7"/>
<path d="M254.481 67.4456L266.041 66.2279C267.298 66.1044 268.51 65.6995 269.59 65.0433C270.67 64.387 271.589 63.496 272.281 62.4358C274.638 58.7133 277.48 56.8173 288.278 57.2173C301.935 57.7218 310.947 49.5635 312.421 42.3968C313.894 35.2301 306.944 30.116 300.081 33.595C293.217 37.074 296.164 28.533 289.578 27.6285C277.255 25.889 274.932 35.4562 264.845 35.1431C251.621 34.743 227.929 44.8321 239.16 68.1936L254.481 67.4456Z" fill="#002B34"/>
<path d="M281.778 76.9606C282.073 78.0739 282.974 78.8045 283.789 78.5784C284.603 78.3522 285.002 77.2737 284.707 76.1605C284.413 75.0472 283.494 74.3166 282.679 74.5427C282.247 74.7506 281.911 75.1185 281.743 75.5694C281.575 76.0202 281.588 76.5189 281.778 76.9606Z" fill="#171730"/>
<path d="M293.495 74.908C293.356 76.0561 293.911 77.065 294.742 77.1694C295.574 77.2737 296.372 76.4388 296.476 75.2733C296.58 74.1079 296.06 73.1163 295.228 73.012C294.396 72.9076 293.633 73.7426 293.495 74.908Z" fill="#171730"/>
<path d="M239.16 68.1935C239.16 68.1935 247.15 85.4842 258.467 86.754C258.467 86.754 249.316 73.5686 268.606 65.5495C268.606 65.5495 250.893 62.7489 239.16 68.1935Z" fill="#002B34"/>
<path d="M255.122 77.726C255.934 78.1258 256.843 78.2812 257.74 78.1735C258.638 78.0657 259.485 77.6995 260.179 77.1189C260.874 76.5384 261.386 75.7684 261.654 74.902C261.922 74.0357 261.934 73.11 261.689 72.2368C261.444 71.3636 260.952 70.5804 260.273 69.9817C259.594 69.383 258.757 68.9944 257.863 68.863C256.968 68.7316 256.055 68.8629 255.234 69.2411C254.412 69.6193 253.717 70.2282 253.233 70.9942C252.597 72.139 252.439 73.4899 252.793 74.7514C253.147 76.0129 253.985 77.0824 255.122 77.726Z" fill="#FCD7B7"/>
<path d="M293.165 89.1545C290.164 89.6549 287.125 89.8819 284.083 89.8329C283.721 89.8288 283.365 89.9256 283.054 90.1126C282.743 90.2996 282.49 90.5695 282.323 90.8922C282.156 91.2149 282.082 91.5778 282.108 91.9405C282.134 92.3032 282.26 92.6515 282.471 92.9466C283.754 94.7731 286.146 96.5126 290.496 95.7124C291.491 95.4858 292.424 95.0448 293.232 94.42C294.04 93.7953 294.703 93.0017 295.176 92.0943C295.366 91.7718 295.46 91.4015 295.448 91.027C295.435 90.6525 295.316 90.2894 295.105 89.9805C294.894 89.6716 294.599 89.4297 294.255 89.2833C293.911 89.137 293.533 89.0923 293.165 89.1545Z" fill="#DA6B49"/>
<path d="M350.602 172.442L351.625 172.163C348.921 162.318 339.822 150.002 339.735 149.88L338.886 150.524C338.973 150.646 347.951 162.787 350.602 172.442Z" fill="#002B34"/>
<path d="M265.608 462.068C265.608 461.616 272.87 416.841 277.74 400.942C282.61 385.043 303.685 371.858 303.893 371.736L303.321 370.831C303.113 370.971 281.778 384.469 276.787 400.629C271.795 416.789 264.655 461.511 264.568 461.894L265.608 462.068Z" fill="#002B34"/>
<path d="M438.335 137.025C438.335 137.025 407.138 156.438 436.931 187.784C439.858 190.877 443.547 193.139 447.625 194.342C456.984 197.09 474.818 199.752 488.718 186.601C490.238 185.153 491.546 183.496 492.601 181.678C496.327 175.347 503.433 159.587 492.722 144.836C489.802 140.765 485.679 137.721 480.936 136.138C479.574 135.697 478.168 135.405 476.742 135.269C474.357 135.044 472.019 134.458 469.81 133.529C467.165 132.31 464.278 131.715 461.369 131.79C460.273 131.877 459.172 131.877 458.076 131.79C454.107 131.407 444.471 131.303 438.335 137.025Z" fill="#E8490F"/>
<path d="M482.878 139.496C481.343 136.669 478.911 134.438 475.97 133.155C473.028 131.873 469.744 131.613 466.638 132.416C468.874 131.737 471.213 131.424 473.467 130.816C475.959 130.287 478.211 128.955 479.879 127.023C479.971 126.928 480.039 126.812 480.078 126.685C480.117 126.558 480.126 126.424 480.105 126.293C480.001 125.98 479.637 125.893 479.307 125.858C478.431 125.829 477.555 125.887 476.69 126.032C472.328 126.635 468.098 127.97 464.177 129.981L459.74 126.397C459.712 126.375 459.677 126.362 459.642 126.359C459.606 126.357 459.57 126.367 459.54 126.386C459.509 126.405 459.486 126.433 459.472 126.466C459.458 126.499 459.455 126.536 459.463 126.571L460.086 129.372C458.425 128.605 456.717 127.942 454.974 127.389C453.24 126.606 450.953 127.389 449.254 128.015C447.105 128.78 444.991 129.65 442.876 130.468C445.407 131.79 448.405 131.529 451.247 131.32C453.448 131.058 455.68 131.259 457.799 131.911C455.472 131.941 453.188 132.538 451.143 133.651C453.31 133.512 455.407 134.782 457.556 135.06C455.424 135.564 453.188 135.704 451.022 136.191C449.597 136.383 448.238 136.91 447.054 137.729C445.87 138.548 444.896 139.636 444.211 140.905C448.752 139.739 453.604 140.591 458.076 139.496C459.549 139.148 461.213 138.278 461.3 136.765C461.872 137.043 462.028 137.774 462.218 138.382C463.38 142.14 467.418 144.192 469.515 147.532C470.725 144.043 470.557 140.221 469.047 136.852L482.878 139.496Z" fill="#55A233"/>
<path d="M486.188 175.764C486.543 174.63 487.327 173.68 488.372 173.12C489.482 172.527 490.778 172.389 491.987 172.736C493.197 173.084 494.224 173.889 494.854 174.981L500.608 185.088C500.918 185.617 501.119 186.203 501.2 186.811C501.28 187.419 501.239 188.038 501.077 188.63C500.915 189.222 500.637 189.775 500.259 190.257C499.881 190.739 499.41 191.14 498.875 191.437C497.768 192.036 496.471 192.179 495.261 191.835C494.051 191.49 493.022 190.686 492.393 189.593L486.639 179.487C486.309 178.932 486.098 178.314 486.021 177.673C485.943 177.032 486 176.382 486.188 175.764Z" fill="#FCDAC8"/>
<path d="M476.967 176.773C477.332 175.644 478.113 174.698 479.151 174.129C480.262 173.54 481.557 173.405 482.765 173.752C483.973 174.099 485.001 174.901 485.633 175.99L492.93 187.749C493.24 188.278 493.441 188.864 493.522 189.472C493.602 190.081 493.561 190.699 493.399 191.291C493.237 191.883 492.959 192.436 492.581 192.919C492.203 193.401 491.732 193.802 491.197 194.098C488.926 195.351 484.489 192.863 483.189 190.619L477.366 180.513C477.041 179.953 476.838 179.33 476.769 178.686C476.701 178.041 476.768 177.389 476.967 176.773Z" fill="#FCDAC8"/>
<path d="M470.156 183.209C470.507 182.064 471.282 181.099 472.323 180.513C473.432 179.915 474.73 179.775 475.94 180.123C477.151 180.47 478.178 181.278 478.805 182.374L484.576 192.481C484.886 193.01 485.087 193.596 485.168 194.204C485.249 194.812 485.207 195.431 485.045 196.023C484.884 196.614 484.606 197.168 484.227 197.65C483.849 198.132 483.378 198.533 482.843 198.83C481.736 199.429 480.44 199.572 479.229 199.227C478.019 198.883 476.99 198.079 476.361 196.986L470.589 186.932C470.263 186.376 470.055 185.757 469.98 185.116C469.906 184.475 469.966 183.826 470.156 183.209Z" fill="#FCDAC8"/>
<path d="M466.534 188.723C466.743 187.995 467.22 187.373 467.868 186.984C468.586 186.548 469.444 186.411 470.261 186.603C471.077 186.795 471.786 187.3 472.236 188.01L478.25 197.473C478.474 197.816 478.627 198.2 478.7 198.603C478.772 199.007 478.763 199.42 478.672 199.82C478.582 200.22 478.412 200.597 478.172 200.929C477.933 201.261 477.629 201.541 477.279 201.752C476.56 202.189 475.698 202.326 474.879 202.135C474.06 201.943 473.348 201.437 472.895 200.726L466.88 191.263C466.642 190.89 466.488 190.47 466.428 190.032C466.368 189.593 466.404 189.147 466.534 188.723Z" fill="#FCDAC8"/>
<path d="M738.364 646.559C738.364 646.559 738.052 659.136 729.577 662.684C721.101 666.233 696.525 669.433 705.694 677.522C710.893 682.149 735.799 679.157 742.801 679.157C749.803 679.157 756.389 682.219 761.605 677.522C767.342 672.304 761.605 646.559 761.605 646.559C758.032 648.372 754.115 649.398 750.115 649.568C742.281 649.377 738.364 646.559 738.364 646.559Z" fill="#002B34"/>
<path d="M835.75 646.542C835.75 646.542 835.438 659.136 826.963 662.684C818.488 666.233 793.912 669.434 803.097 677.522C808.297 682.149 833.185 679.157 840.205 679.157C847.224 679.157 853.793 682.219 859.009 677.418C864.729 672.199 859.009 646.455 859.009 646.455C855.438 648.274 851.52 649.306 847.518 649.482C839.754 649.36 835.75 646.542 835.75 646.542Z" fill="#002B34"/>
<path d="M675.328 301.721C675.328 301.721 673.769 354.376 690.511 455.388C702.643 528.308 716.873 601.784 723.875 637.009C725.02 643.073 728.167 648.573 732.808 652.622C737.449 656.67 743.314 659.033 749.456 659.327L756.181 659.588C759.411 659.675 762.623 659.078 765.608 657.834C768.592 656.591 771.282 654.73 773.501 652.373C775.721 650.016 777.42 647.215 778.488 644.154C779.556 641.093 779.969 637.841 779.7 634.609L762.715 396.298L758.521 317.846L675.328 301.721Z" fill="#49519E"/>
<path d="M828.506 348.061C827.726 354.463 791.624 353.68 747.428 348.061C703.233 342.443 668.812 332.823 669.574 326.422C670.337 320.021 705.971 319.238 750.219 324.839C794.467 330.44 829.355 341.643 828.506 348.061Z" fill="#002B34"/>
<path d="M726.076 339.329L820.464 643.602C822.319 649.757 826.062 655.166 831.159 659.061C836.257 662.956 842.449 665.137 848.853 665.294L854.521 665.381C857.692 665.388 860.826 664.692 863.699 663.342C866.571 661.992 869.111 660.021 871.136 657.572C873.162 655.122 874.622 652.253 875.414 649.17C876.206 646.088 876.31 642.868 875.717 639.74L824.156 353.75C823.787 352.112 822.988 350.603 821.842 349.379C820.696 348.156 819.245 347.262 817.639 346.792C799.891 341.59 724.342 326.735 726.076 339.329Z" fill="#49519E"/>
<path d="M834.555 326.631L813.15 301.686C813.531 301.443 855.543 274.828 851.522 236.942C849.425 217.182 837.657 201.283 816.443 189.697C805.914 184.009 794.608 179.907 782.889 177.521L787.932 145.166C803.152 148.117 817.83 153.397 831.452 160.822C862.077 177.573 879.981 202.674 883.239 233.428C885.874 258.251 877.225 282.952 858.23 304.748C844.555 320.421 845.162 321.412 834.555 326.631Z" fill="#FCD7B7"/>
<path d="M667.356 220.8C650.128 220.8 631.895 214.242 613.056 201.248C604.373 195.269 596.303 188.44 588.965 180.861L612.051 158.247L600.577 169.554L612.103 158.213C620.248 166.91 646.402 189.21 669.297 187.975C679.696 187.419 688.691 181.974 696.75 171.311L721.899 191.437C708.155 209.563 690.476 219.686 670.77 220.713C669.661 220.782 668.5 220.8 667.356 220.8Z" fill="#FCDAC8"/>
<path d="M813.757 172.877C813.757 172.877 801.208 137.408 756.562 139.026C711.916 140.644 677.946 199.647 669.574 326.439C669.574 326.439 742.818 310.314 828.627 347.922C828.627 347.922 833.393 224.557 813.757 172.877Z" fill="#FBBA00"/>
<path d="M848.87 165.379L813.462 191.089C813.462 191.089 732.003 199.282 710.39 195.333C688.778 191.385 682.833 173.851 682.833 173.851C699.613 156.539 721.337 144.886 745.002 140.504C755.295 138.637 765.807 138.297 776.199 139.496C814.918 143.653 848.87 165.379 848.87 165.379Z" fill="#FBBA00"/>
<path d="M848.87 165.379C850.794 168.162 844.416 176.182 834.641 183.279C824.866 190.376 815.386 193.89 813.462 191.106C811.538 188.323 817.916 180.304 827.691 173.19C837.466 166.075 846.947 162.596 848.87 165.379Z" fill="#002B34"/>
<path d="M631.271 192.515C631.271 192.515 621.652 164.997 612.051 158.247C602.449 151.498 596.799 159.865 596.799 159.865L586.868 157.621C586.868 157.621 577.145 200.169 607.839 198.204C610.266 198.047 631.271 192.515 631.271 192.515Z" fill="#FCDAC8"/>
<path d="M776.164 139.461C773.815 139.215 771.573 138.348 769.667 136.949C767.761 135.549 766.259 133.667 765.314 131.494L759.352 117.578L757.619 113.542L747.446 89.8329L749.179 114.412L750.236 129.163L750.548 133.373C750.659 135.025 750.157 136.659 749.14 137.963C748.122 139.267 746.661 140.147 745.036 140.435C743.303 143.392 740.721 149.393 748.191 151.776C756.978 154.594 771.173 147.654 776.268 139.426L776.164 139.461Z" fill="#FCD7B7"/>
<path d="M830.378 290.606C830.378 290.606 817.119 278.429 806.65 279.508C796.182 280.586 783.634 289.945 790.255 290.606C795.384 290.947 800.535 290.708 805.611 289.893C805.611 289.893 787.118 293.841 789.908 297.772C792.698 301.704 808.748 298.138 808.748 298.138C808.748 298.138 787.118 304.591 790.965 307.444C794.813 310.297 811.191 305.305 811.191 305.305C811.191 305.305 791.312 312.106 795.835 315.324C800.359 318.542 812.231 309.601 815.022 313.585C817.812 317.568 823.046 332.928 834.901 326.474L830.378 290.606Z" fill="#FCD7B7"/>
<path d="M768.261 475.323L747.896 413.397C743.419 399.586 734.003 387.929 721.465 380.677L722.263 379.303C735.143 386.747 744.814 398.722 749.404 412.91L769.699 474.836L768.261 475.323Z" fill="#020303"/>
<path d="M819.996 191.576C819.996 191.576 818.037 185.662 826.928 179.086C833.051 174.894 840.035 172.136 847.362 171.015L849.685 182.305L837.137 187.819L819.996 191.576Z" fill="#FCD7B7"/>
<path d="M775.124 85.7973C775.124 85.7973 774.188 89.8329 776.494 98.0955C779.96 110.272 766.095 115.247 762.628 111.803C762.195 111.368 762.767 90.7896 762.767 90.7896L767.169 88.163L775.124 85.7973Z" fill="#002B34"/>
<path d="M759.387 117.195C759.387 117.334 759.387 117.456 759.387 117.595C758.798 125.527 750.357 129.215 750.357 129.215L749.3 114.464C751.883 113.507 755.557 112.533 757.706 113.594C758.319 113.95 758.809 114.486 759.11 115.13C759.41 115.774 759.507 116.495 759.387 117.195Z" fill="#002B34"/>
<path d="M723.337 93.7816C723.337 78.1261 733.632 65.2886 746.336 65.2886C759.04 65.2886 769.353 78.0391 769.353 93.7816C769.353 109.524 758.954 122.275 746.336 122.275C733.719 122.275 723.337 109.507 723.337 93.7816Z" fill="#FCD7B7"/>
<path d="M737.22 71.9161C737.861 72.7858 734.239 87.4324 761.294 90.9462C788.348 94.46 772.091 61.4965 752.142 60.7485C723.32 59.67 719.126 79.135 721.881 86.1278C724.637 93.1206 737.22 71.9161 737.22 71.9161Z" fill="#002B34"/>
<path d="M783.894 51.7901C780.528 52.6657 777.506 54.5461 775.228 57.1825C772.628 60.2788 770.497 65.045 776.095 69.6547C785.454 77.3433 811.157 80.7005 804.155 93.6598C797.153 106.619 791.052 125.823 803.687 128.224C816.322 130.624 824.242 129.65 829.39 139.739C834.537 149.828 857.432 143.566 855.561 131.581C854.607 125.493 857.034 116.952 859.633 109.994C861.008 106.363 861.187 102.385 860.146 98.6445C859.104 94.9037 856.896 91.5962 853.845 89.2067C838.801 77.4477 835.04 74.8384 830.794 62.9403C826.322 50.4507 797.655 48.1197 783.894 51.7901Z" fill="#002B34"/>
<path d="M769.717 98.0781C767.117 100.566 763.478 100.827 761.588 98.6522C759.699 96.4778 760.271 92.6683 762.888 90.1808C765.505 87.6933 769.128 87.415 771.017 89.6068C772.906 91.7985 772.334 95.5733 769.717 98.0781Z" fill="#FCD7B7"/>
<path d="M805.749 290.258L805.472 289.527C805.697 289.527 810.793 287.562 813.618 289.527L813.167 290.171C810.671 288.449 805.801 290.24 805.749 290.258Z" fill="#DD8964"/>
<path d="M808.886 298.503L808.609 297.772C811.699 296.612 815.103 296.612 818.193 297.772L817.881 298.486C814.975 297.426 811.789 297.432 808.886 298.503Z" fill="#DD8964"/>
<path d="M811.33 305.757L811.053 305.026C811.313 304.922 817.327 302.695 820.169 305.026L819.667 305.618C817.223 303.495 811.382 305.635 811.33 305.757Z" fill="#DD8964"/>
<path d="M676.126 332.18C676.126 332.18 696.681 329.31 727.531 331.588C757.358 333.928 786.93 338.828 815.923 346.235L800.758 348.809L705.78 352.584L686.715 336.842L676.126 332.18Z" fill="#49519E"/>
<path d="M735.608 110.724C739.72 110.552 743.795 109.868 747.74 108.689C747.927 108.637 748.124 108.633 748.313 108.678C748.503 108.722 748.677 108.813 748.822 108.943C748.967 109.073 749.077 109.237 749.143 109.421C749.208 109.604 749.226 109.801 749.196 109.994C748.815 112.325 747.307 116.117 741.449 116.482C740.086 116.441 738.754 116.061 737.574 115.374C736.394 114.688 735.402 113.718 734.689 112.551C734.565 112.38 734.49 112.178 734.472 111.967C734.455 111.756 734.496 111.544 734.591 111.355C734.686 111.166 734.831 111.007 735.011 110.896C735.19 110.784 735.397 110.725 735.608 110.724Z" fill="#DA6B49"/>
<path d="M746.163 95.6776C746.374 96.1568 746.392 96.699 746.214 97.1914C746.037 97.6839 745.677 98.0887 745.21 98.3217C744.343 98.5652 743.355 97.7998 743.009 96.5822C742.803 96.1025 742.786 95.5619 742.963 95.0706C743.141 94.5794 743.498 94.1743 743.962 93.9381C744.88 93.712 745.868 94.4774 746.163 95.6776Z" fill="#171730"/>
<path d="M733.684 96.9127C733.959 97.3569 734.052 97.89 733.946 98.4017C733.84 98.9134 733.541 99.3643 733.112 99.6611C732.298 100.026 731.206 99.4001 730.703 98.2695C730.512 98.0685 730.372 97.8245 730.295 97.5581C730.217 97.2916 730.204 97.0104 730.257 96.7378C730.31 96.4653 730.427 96.2094 730.598 95.9916C730.769 95.7737 730.99 95.6002 731.242 95.4855C731.494 95.3709 731.77 95.3184 732.046 95.3325C732.322 95.3466 732.591 95.4268 732.83 95.5665C733.069 95.7062 733.272 95.9013 733.42 96.1355C733.569 96.3697 733.659 96.6362 733.684 96.9127Z" fill="#171730"/>
<path d="M704.203 172.106L693.694 191.853L694.655 192.368L705.164 172.621L704.203 172.106Z" fill="#002B34"/>
<path d="M608.948 120.796C608.948 120.796 599.572 119.23 600.837 127.858C600.837 127.858 585.36 131.476 583.956 153.725C583.956 153.725 582.552 180.461 610.196 181.122C610.196 181.122 635.032 182.583 636.748 153.725C636.748 153.725 636.211 133.912 620.197 127.632C619.963 126.411 619.476 125.252 618.768 124.231C618.06 123.21 617.147 122.349 616.086 121.705C615.026 121.06 613.843 120.647 612.613 120.49C611.384 120.333 610.135 120.438 608.948 120.796Z" fill="#F49600"/>
<path d="M608.723 122.379L607.735 122.205H607.648C607.562 122.205 607.648 122.362 607.648 122.431C607.648 122.501 607.77 122.588 607.735 122.675L606.99 122.883C606.99 123.057 607.267 123.109 607.44 123.179C607.614 123.249 607.77 123.457 607.648 123.597C608.082 123.684 608.515 123.214 608.914 123.37C609.032 123.417 609.143 123.481 609.243 123.562C609.299 123.592 609.361 123.608 609.425 123.608C609.488 123.608 609.551 123.592 609.607 123.562C609.711 123.475 609.745 123.318 609.867 123.283C609.988 123.249 610.005 123.283 610.057 123.283C610.185 123.387 610.325 123.474 610.473 123.544C610.548 123.572 610.629 123.577 610.706 123.559C610.783 123.54 610.853 123.499 610.907 123.44C610.934 123.361 610.969 123.286 611.011 123.214C611.097 123.057 611.34 123.04 611.531 123.075C611.715 123.144 611.918 123.144 612.103 123.075C611.77 122.912 611.446 122.732 611.132 122.535C610.977 122.43 610.862 122.273 610.809 122.092C610.755 121.912 610.765 121.718 610.837 121.544L609.78 122.048L609.538 122.135C609.377 122.105 609.22 122.059 609.07 121.996C608.914 121.996 608.706 122.101 608.775 122.257" fill="#007937"/>
<path d="M609.364 122.866C609.904 119.164 610.912 115.545 612.362 112.098C612.744 111.107 613.142 110.133 613.541 109.141C613.568 109.04 613.554 108.932 613.502 108.841C613.45 108.75 613.364 108.683 613.264 108.654C613.163 108.636 613.059 108.653 612.97 108.704C612.882 108.755 612.814 108.836 612.778 108.933C611.268 112.41 610.045 116.005 609.121 119.683C608.896 120.726 608.705 121.805 608.584 122.866C608.584 122.972 608.626 123.074 608.701 123.149C608.776 123.224 608.877 123.266 608.983 123.266C609.034 123.266 609.085 123.256 609.133 123.235C609.18 123.215 609.223 123.185 609.259 123.148C609.294 123.11 609.322 123.066 609.34 123.018C609.358 122.969 609.366 122.918 609.364 122.866Z" fill="#007937"/>
<path d="M610.976 113.699C607.274 112.943 603.447 113.065 599.8 114.056C596.153 115.046 592.787 116.878 589.97 119.404C587.719 121.603 585.693 124.021 583.921 126.623C585.654 125.075 588.289 124.884 590.646 124.658C595.144 124.155 599.543 122.982 603.697 121.179C605.996 120.359 608.004 118.876 609.468 116.917C610.013 115.78 610.663 114.697 611.409 113.681" fill="#007937"/>
<path d="M582.483 166.597C581.318 166.598 580.199 166.142 579.363 165.327C578.48 164.466 577.963 163.294 577.921 162.059C577.879 160.823 578.315 159.62 579.138 158.7L586.816 150.263C587.218 149.813 587.706 149.448 588.252 149.192C588.797 148.935 589.389 148.792 589.991 148.771C590.594 148.75 591.194 148.851 591.756 149.069C592.318 149.286 592.831 149.616 593.263 150.037C594.155 150.894 594.677 152.067 594.719 153.305C594.761 154.543 594.32 155.749 593.488 156.664L585.828 165.101C585.404 165.57 584.888 165.945 584.312 166.202C583.736 166.46 583.113 166.594 582.483 166.597Z" fill="#FCDAC8"/>
<path d="M585.394 174.32C584.229 174.321 583.11 173.866 582.275 173.051C581.387 172.191 580.868 171.019 580.826 169.783C580.783 168.546 581.222 167.341 582.049 166.423L589.727 157.986C590.129 157.537 590.617 157.173 591.162 156.916C591.707 156.66 592.298 156.516 592.9 156.493C593.501 156.47 594.101 156.569 594.664 156.784C595.226 156.999 595.74 157.325 596.175 157.743C597.063 158.605 597.584 159.78 597.626 161.02C597.668 162.259 597.228 163.467 596.4 164.388L588.722 172.824C588.303 173.294 587.79 173.669 587.217 173.927C586.643 174.184 586.023 174.319 585.394 174.32Z" fill="#FCDAC8"/>
<path d="M588.445 181.487C587.284 181.484 586.168 181.036 585.325 180.235C584.442 179.373 583.925 178.202 583.883 176.966C583.841 175.731 584.277 174.527 585.1 173.607L592.778 165.153C593.181 164.702 593.671 164.337 594.218 164.081C594.766 163.824 595.359 163.681 595.962 163.66C596.566 163.639 597.168 163.74 597.731 163.958C598.295 164.176 598.809 164.505 599.243 164.927C600.126 165.788 600.643 166.96 600.685 168.195C600.727 169.431 600.291 170.635 599.468 171.555L591.79 180.009C591.364 180.473 590.847 180.845 590.271 181.099C589.696 181.353 589.074 181.486 588.445 181.487Z" fill="#FCDAC8"/>
<path d="M593.298 186.201C592.576 186.201 591.879 185.935 591.339 185.453C590.719 184.912 590.334 184.149 590.266 183.327C590.198 182.505 590.453 181.689 590.975 181.052L597.908 172.546C598.16 172.233 598.473 171.975 598.828 171.786C599.182 171.598 599.571 171.483 599.971 171.449C600.371 171.415 600.773 171.462 601.154 171.588C601.535 171.714 601.887 171.915 602.189 172.181C602.809 172.722 603.194 173.485 603.262 174.307C603.329 175.129 603.075 175.945 602.553 176.582L595.62 185.088C595.339 185.434 594.985 185.713 594.583 185.906C594.182 186.098 593.743 186.199 593.298 186.201Z" fill="#FCDAC8"/>
<path d="M604.043 39.8571C603.732 39.8548 603.423 39.8079 603.125 39.718L590.178 36.1346C589.33 35.8561 588.622 35.2602 588.2 34.4708C587.779 33.6814 587.677 32.7593 587.916 31.8966C588.155 31.0338 588.716 30.2966 589.483 29.8386C590.25 29.3806 591.163 29.2369 592.033 29.4375L600.352 31.7511L599.918 23.0536C599.896 22.5967 599.963 22.1398 600.116 21.709C600.269 21.2782 600.505 20.8818 600.811 20.5426C601.117 20.2034 601.486 19.928 601.898 19.732C602.31 19.5361 602.756 19.4235 603.211 19.4006C604.131 19.3545 605.031 19.6768 605.713 20.2966C606.051 20.6035 606.326 20.9742 606.521 21.3876C606.716 21.8009 606.828 22.2488 606.851 22.7057L607.51 36.1346C607.536 36.6848 607.432 37.2335 607.206 37.7355C606.98 38.2376 606.639 38.6785 606.21 39.0222C605.605 39.5421 604.84 39.8369 604.043 39.8571Z" fill="#F6A21A"/>
<path d="M598.653 33.1427C598.16 33.1399 597.672 33.0314 597.224 32.8244C596.776 32.6174 596.377 32.3167 596.053 31.9424C582.899 16.861 561.858 7.83299 539.725 7.83299C517.593 7.83299 496.587 16.861 483.415 31.9424C482.791 32.5601 481.958 32.9179 481.082 32.9439C480.207 32.9699 479.353 32.6621 478.695 32.0825C478.036 31.5029 477.62 30.6944 477.531 29.8196C477.442 28.9449 477.687 28.0688 478.215 27.3675C492.878 10.5466 515.305 0.875 539.76 0.875C564.215 0.875 586.608 10.5466 601.27 27.4371C601.874 28.1317 602.178 29.0385 602.117 29.9582C602.055 30.8779 601.632 31.7355 600.941 32.3425C600.299 32.8767 599.487 33.1608 598.653 33.1427Z" fill="#F6A21A"/>
<path d="M480.295 79.7264C479.814 79.7282 479.338 79.6294 478.897 79.4364C478.456 79.2433 478.06 78.9603 477.734 78.6052C477.408 78.2502 477.159 77.8309 477.003 77.374C476.847 76.9172 476.788 76.4328 476.829 75.9517L477.955 62.5576C478.033 61.6349 478.474 60.7812 479.179 60.1842C479.884 59.5872 480.797 59.2959 481.716 59.3743C482.636 59.4527 483.486 59.8945 484.081 60.6024C484.676 61.3103 484.966 62.2263 484.888 63.149L484.16 71.7247L492.549 69.6895C493.443 69.4727 494.386 69.6212 495.171 70.1024C495.956 70.5835 496.518 71.358 496.734 72.2553C496.95 73.1526 496.802 74.0993 496.323 74.8871C495.843 75.6749 495.072 76.2393 494.178 76.4562L481.11 79.6221C480.843 79.6891 480.57 79.7242 480.295 79.7264Z" fill="#F6A21A"/>
<path d="M603.749 77.2042C603.235 77.2055 602.728 77.0922 602.263 76.8726C601.799 76.653 601.388 76.3325 601.062 75.9343C588.445 60.4006 567.699 50.6768 545.601 49.8419C523.503 49.0069 502.133 57.3913 488.493 72.0205C488.188 72.3732 487.814 72.6604 487.396 72.8651C486.977 73.0698 486.521 73.1877 486.056 73.2118C485.591 73.2359 485.126 73.1658 484.689 73.0054C484.251 72.8451 483.85 72.598 483.51 72.2788C483.17 71.9596 482.898 71.5748 482.709 71.1475C482.52 70.7203 482.419 70.2592 482.412 69.7918C482.404 69.3245 482.491 68.8605 482.666 68.4275C482.842 67.9945 483.102 67.6014 483.432 67.2716C498.65 50.9552 521.371 42.0489 545.826 42.9187C570.281 43.7884 592.362 54.1558 606.487 71.4812C607.067 72.1946 607.342 73.1096 607.251 74.0259C607.16 74.9421 606.711 75.7848 606.002 76.3692C605.374 76.9081 604.575 77.2042 603.749 77.2042Z" fill="#F6A21A"/>
</g>
<defs>
<clipPath id="clip0_117_232">
<rect width="1069" height="749.062" fill="white" transform="translate(0 0.875)"/>
</clipPath>
</defs>
</svg>
