<svg width="80" height="80" viewBox="0 0 80 80" fill="none" xmlns="http://www.w3.org/2000/svg">
<path d="M40 28C36.8174 28 33.7652 29.2643 31.5147 31.5147C29.2643 33.7652 28 36.8174 28 40C28 43.1826 29.2643 46.2348 31.5147 48.4853C33.7652 50.7357 36.8174 52 40 52C43.1826 52 46.2348 50.7357 48.4853 48.4853C50.7357 46.2348 52 43.1826 52 40C52 36.8174 50.7357 33.7652 48.4853 31.5147C46.2348 29.2643 43.1826 28 40 28ZM40 20C45.3043 20 50.3914 22.1071 54.1421 25.8579C57.8929 29.6086 60 34.6957 60 40C60 45.3043 57.8929 50.3914 54.1421 54.1421C50.3914 57.8929 45.3043 60 40 60C34.6957 60 29.6086 57.8929 25.8579 54.1421C22.1071 50.3914 20 45.3043 20 40C20 34.6957 22.1071 29.6086 25.8579 25.8579C29.6086 22.1071 34.6957 20 40 20ZM66 19C66 20.3261 65.4732 21.5979 64.5355 22.5355C63.5979 23.4732 62.3261 24 61 24C59.6739 24 58.4021 23.4732 57.4645 22.5355C56.5268 21.5979 56 20.3261 56 19C56 17.6739 56.5268 16.4021 57.4645 15.4645C58.4021 14.5268 59.6739 14 61 14C62.3261 14 63.5979 14.5268 64.5355 15.4645C65.4732 16.4021 66 17.6739 66 19ZM40 8C30.104 8 28.488 8.028 23.884 8.232C20.748 8.38 18.644 8.8 16.692 9.56C14.956 10.232 13.704 11.036 12.372 12.372C11.12 13.5816 10.1574 15.0583 9.556 16.692C8.796 18.652 8.376 20.752 8.232 23.884C8.024 28.3 8 29.844 8 40C8 49.896 8.028 51.512 8.232 56.116C8.38 59.248 8.8 61.356 9.556 63.304C10.236 65.044 11.036 66.296 12.364 67.624C13.712 68.968 14.964 69.772 16.684 70.436C18.66 71.2 20.764 71.624 23.884 71.768C28.3 71.976 29.844 72 40 72C49.896 72 51.512 71.972 56.116 71.768C59.244 71.62 61.352 71.2 63.304 70.444C65.036 69.768 66.296 68.964 67.624 67.636C68.972 66.288 69.776 65.036 70.44 63.316C71.2 61.344 71.624 59.236 71.768 56.116C71.976 51.7 72 50.156 72 40C72 30.104 71.972 28.488 71.768 23.884C71.62 20.756 71.2 18.644 70.44 16.692C69.8372 15.06 68.8763 13.5838 67.628 12.372C66.4189 11.1194 64.942 10.1567 63.308 9.556C61.348 8.796 59.244 8.376 56.116 8.232C51.7 8.024 50.156 8 40 8ZM40 0C50.868 0 52.224 0.0399998 56.488 0.24C60.748 0.44 63.648 1.108 66.2 2.1C68.84 3.116 71.064 4.492 73.288 6.712C75.322 8.71158 76.8958 11.1304 77.9 13.8C78.888 16.348 79.56 19.252 79.76 23.512C79.948 27.776 80 29.132 80 40C80 50.868 79.96 52.224 79.76 56.488C79.56 60.748 78.888 63.648 77.9 66.2C76.8987 68.8711 75.3245 71.2905 73.288 73.288C71.2878 75.3213 68.8692 76.895 66.2 77.9C63.652 78.888 60.748 79.56 56.488 79.76C52.224 79.948 50.868 80 40 80C29.132 80 27.776 79.96 23.512 79.76C19.252 79.56 16.352 78.888 13.8 77.9C11.1293 76.8979 8.71011 75.3238 6.712 73.288C4.67763 71.2887 3.10373 68.8699 2.1 66.2C1.108 63.652 0.44 60.748 0.24 56.488C0.0519998 52.224 0 50.868 0 40C0 29.132 0.0399998 27.776 0.24 23.512C0.44 19.248 1.108 16.352 2.1 13.8C3.10094 11.1287 4.67521 8.70928 6.712 6.712C8.71068 4.67692 11.1297 3.10292 13.8 2.1C16.352 1.108 19.248 0.44 23.512 0.24C27.776 0.0519998 29.132 0 40 0Z" fill="black"/>
</svg>
