<svg width="369" height="94" viewBox="0 0 369 94" fill="none" xmlns="http://www.w3.org/2000/svg">
<g clip-path="url(#clip0_44_8)">
<path d="M251.237 92.3462C250.89 92.239 250.568 92.0644 250.289 91.8326C250.009 91.6007 249.779 91.3161 249.61 90.9951C249.441 90.674 249.337 90.3228 249.304 89.9615C249.271 89.6003 249.309 89.236 249.417 88.8897L257.096 64.0514C257.176 63.7782 257.192 63.4901 257.142 63.2098C257.091 62.9296 256.976 62.6649 256.806 62.4368C256.635 62.2086 256.414 62.0233 256.159 61.8954C255.905 61.7675 255.624 61.7006 255.339 61.7H195.226C194.51 61.7 193.823 61.4162 193.315 60.9108C192.808 60.4053 192.522 59.7196 192.52 59.0038V58.5256C192.52 58.1705 192.59 57.8189 192.726 57.4908C192.862 57.1628 193.061 56.8647 193.313 56.6136C193.564 56.3625 193.862 56.1633 194.19 56.0274C194.519 55.8915 194.871 55.8216 195.226 55.8216H257.418C258.387 55.8213 259.343 56.0486 260.208 56.485C261.073 56.9215 261.824 57.5549 262.399 58.3343C262.974 59.1136 263.359 60.0172 263.521 60.9721C263.683 61.927 263.618 62.9066 263.332 63.8319L255.143 90.324C254.887 91.1056 254.335 91.7556 253.604 92.1338C252.873 92.5121 252.023 92.5884 251.237 92.3462Z" fill="#1D1D1B"/>
<path d="M341.461 93.8589C341.114 93.7525 340.791 93.5785 340.511 93.347C340.231 93.1155 339.999 92.8311 339.829 92.5099C339.659 92.1888 339.555 91.8373 339.521 91.4756C339.488 91.114 339.526 90.7493 339.634 90.4024L347.046 66.3557C347.126 66.0825 347.142 65.7944 347.091 65.5142C347.041 65.2339 346.926 64.9693 346.756 64.7411C346.585 64.513 346.364 64.3276 346.109 64.1997C345.855 64.0718 345.574 64.005 345.289 64.0043H285.176C284.46 64.0043 283.773 63.7205 283.265 63.2151C282.758 62.7097 282.472 62.0239 282.47 61.3081V60.83C282.472 60.1135 282.758 59.4269 283.265 58.9202C283.772 58.4135 284.459 58.128 285.176 58.1259H347.367C348.337 58.1257 349.292 58.3529 350.158 58.7894C351.023 59.2258 351.773 59.8592 352.349 60.6386C352.924 61.418 353.308 62.3215 353.47 63.2764C353.632 64.2313 353.568 65.2109 353.281 66.1362L345.36 91.8367C345.104 92.6165 344.552 93.2651 343.824 93.6432C343.095 94.0212 342.247 94.0987 341.461 93.8589Z" fill="#1D1D1B"/>
<path d="M66.4349 75.9101C74.5137 81.718 73.0548 89.3521 63.3837 91.4997C43.7749 95.8889 23.4287 94.3684 12.9262 86.797C2.42365 79.2255 4.82377 67.8841 17.295 58.361C23.4444 53.6583 37.0216 54.7634 45.0926 60.5635L66.4349 75.9101Z" fill="#FBBA00"/>
<path d="M109.418 75.1734C101.017 81.2164 102.523 89.1405 112.594 91.3978C132.987 95.9673 154.165 94.3919 165.146 86.5305C176.127 78.6691 173.578 66.8181 160.597 56.9032C154.196 52.0123 140.062 53.1567 131.662 59.1997L109.418 75.1734Z" fill="#FBBA00"/>
<path d="M77.7767 44.3234C77.8005 44.7256 77.7363 45.1281 77.5887 45.5031C77.441 45.878 77.2135 46.2163 76.9217 46.4944C76.3549 47.0069 75.6154 47.2868 74.851 47.2782H2.92566C2.16128 47.2868 1.42181 47.0069 0.854959 46.4944C0.561955 46.2173 0.333498 45.8791 0.185759 45.504C0.0380188 45.1288 -0.0253928 44.7257 1.18103e-05 44.3234C-0.0264091 43.922 0.0365667 43.5199 0.184403 43.1458C0.33224 42.7717 0.561257 42.4351 0.854959 42.1601C1.42181 41.6476 2.16128 41.3677 2.92566 41.3763H35.6646V33.3424C35.6331 32.9212 35.6979 32.4984 35.8542 32.1059C36.0105 31.7134 36.2541 31.3617 36.5667 31.0773C37.2296 30.5389 38.0661 30.2603 38.9197 30.2935C39.7706 30.2785 40.601 30.5551 41.2728 31.0773C41.5991 31.3532 41.8558 31.7021 42.022 32.0956C42.1883 32.4892 42.2594 32.9163 42.2297 33.3424V41.4077H74.851C75.6154 41.3991 76.3549 41.679 76.9217 42.1914C77.21 42.4639 77.4356 42.7956 77.5832 43.1637C77.7308 43.5317 77.7968 43.9274 77.7767 44.3234V44.3234Z" fill="#1D1D1B"/>
<path d="M69.9096 6.27032C69.7899 5.36893 69.4623 4.50764 68.9527 3.75436C68.3913 2.96152 67.6275 2.33359 66.7408 1.93596C65.5023 1.41237 64.1625 1.17139 62.819 1.23055H15.1224C13.7788 1.16979 12.4386 1.41084 11.2006 1.93596C10.3295 2.33396 9.57781 2.95274 9.02008 3.73084C8.50702 4.49104 8.1793 5.36077 8.06317 6.27032C7.93154 7.2051 7.86602 8.14799 7.86708 9.09197V18.9364C7.86602 19.8804 7.93154 20.8232 8.06317 21.758C8.18182 22.6669 8.50934 23.5361 9.02008 24.2975C9.58902 25.0844 10.3543 25.7087 11.2398 26.1081C12.4779 26.6332 13.818 26.8742 15.1616 26.8135H62.8582C64.2017 26.8726 65.5415 26.6317 66.78 26.1081C67.6501 25.7046 68.3992 25.0803 68.9527 24.2975C69.4612 23.5407 69.7886 22.6772 69.9096 21.7737C70.0438 20.8391 70.112 19.8962 70.1135 18.9521V9.06846C70.1109 8.13214 70.0427 7.19715 69.9096 6.27032V6.27032ZM63.5328 18.9364C63.5679 19.2222 63.5458 19.5122 63.4677 19.7894C63.3896 20.0666 63.257 20.3255 63.0778 20.551C62.7207 20.8353 62.2709 20.9777 61.815 20.9507H16.1263C15.6728 20.978 15.2254 20.8355 14.8714 20.551C14.6902 20.3266 14.5565 20.0678 14.4783 19.7903C14.4001 19.5127 14.3791 19.2223 14.4164 18.9364V9.06846C14.3834 8.78043 14.4095 8.48868 14.4931 8.21107C14.5767 7.93345 14.7161 7.67579 14.9027 7.45385C15.2486 7.17672 15.6835 7.03465 16.1263 7.05411H61.8464C62.3023 7.02714 62.752 7.16951 63.1092 7.45385C63.2829 7.68174 63.4098 7.94174 63.4825 8.21885C63.5552 8.49596 63.5723 8.78471 63.5328 9.06846V18.9364Z" fill="#1D1D1B"/>
<path d="M99.7779 34.3535C99.7407 34.6382 99.7618 34.9274 99.84 35.2037C99.9182 35.4799 100.052 35.7373 100.233 35.9603C100.584 36.2511 101.033 36.3969 101.488 36.3679H114.9C115.662 36.3589 116.399 36.639 116.963 37.1517C117.522 37.7351 117.833 38.5114 117.833 39.3189C117.833 40.1263 117.522 40.9026 116.963 41.486C116.399 41.9987 115.662 42.2788 114.9 42.2698H100.484C99.1402 42.3306 97.8001 42.0895 96.562 41.5644C95.6765 41.165 94.9112 40.5408 94.3423 39.7539C93.8326 39.0006 93.505 38.1393 93.3854 37.2379C93.2537 36.3031 93.1882 35.3602 93.1893 34.4162V9.06846C93.1882 8.12447 93.2537 7.18159 93.3854 6.24681C93.505 5.34542 93.8326 4.48413 94.3423 3.73084C94.9078 2.93875 95.6738 2.31118 96.562 1.91245C97.8001 1.38733 99.1402 1.14628 100.484 1.20704H111.873C112.638 1.1953 113.378 1.47562 113.943 1.99083C114.236 2.26681 114.464 2.60362 114.612 2.97744C114.759 3.35125 114.823 3.75294 114.798 4.15409C114.816 4.54748 114.749 4.9401 114.601 5.30526C114.454 5.67043 114.229 5.99957 113.943 6.27032C113.378 6.78553 112.638 7.06585 111.873 7.05411H101.488C101.034 7.02685 100.587 7.16936 100.233 7.45385C100.052 7.67825 99.9179 7.93704 99.8397 8.21456C99.7616 8.49209 99.7405 8.78257 99.7779 9.06846V34.3535Z" fill="#1D1D1B"/>
<path d="M129.113 34.3535C129.076 34.6382 129.097 34.9274 129.175 35.2037C129.253 35.4799 129.387 35.7373 129.568 35.9603C129.921 36.2523 130.373 36.3981 130.83 36.3679H143.427C144.192 36.3593 144.931 36.6392 145.498 37.1517C146.048 37.7396 146.353 38.5142 146.353 39.3189C146.353 40.1235 146.048 40.8981 145.498 41.486C144.931 41.9985 144.192 42.2784 143.427 42.2698H129.819C128.488 42.3247 127.162 42.0838 125.936 41.5644C125.051 41.165 124.285 40.5408 123.716 39.7539C123.207 39.0006 122.879 38.1393 122.759 37.2379C122.628 36.3031 122.562 35.3602 122.563 34.4162V9.06846C122.562 8.12447 122.628 7.18159 122.759 6.24681C122.879 5.34542 123.207 4.48413 123.716 3.73084C124.282 2.93875 125.048 2.31118 125.936 1.91245C127.162 1.39308 128.488 1.15215 129.819 1.20704H140.4C141.162 1.19651 141.9 1.47681 142.462 1.99083C142.756 2.26581 142.985 2.60246 143.133 2.97653C143.281 3.3506 143.344 3.75278 143.317 4.15409C143.338 4.54707 143.273 4.9398 143.126 5.30516C142.98 5.67052 142.756 5.99982 142.47 6.27033C141.906 6.78622 141.165 7.06665 140.4 7.05412H130.83C130.374 7.02563 129.924 7.16817 129.568 7.45385C129.387 7.67825 129.253 7.93704 129.175 8.21457C129.096 8.49209 129.075 8.78257 129.113 9.06846V34.3535Z" fill="#1D1D1B"/>
<path d="M182.943 22.3615C182.968 22.7639 182.905 23.167 182.757 23.5421C182.61 23.9173 182.381 24.2555 182.088 24.5326C181.524 25.0453 180.787 25.3254 180.025 25.3164H167.625V43.7198C167.655 44.146 167.584 44.5734 167.418 44.967C167.251 45.3606 166.994 45.7094 166.668 45.985C165.998 46.5106 165.166 46.7876 164.315 46.7688C163.46 46.8057 162.623 46.5266 161.962 45.985C161.647 45.7017 161.402 45.3504 161.244 44.9578C161.086 44.5652 161.02 44.1417 161.052 43.7198V3.02543C161.028 2.6064 161.099 2.18749 161.26 1.79954C161.42 1.41159 161.665 1.06448 161.977 0.783786C162.64 0.245386 163.477 -0.0332488 164.33 -4.64784e-06C165.181 -0.0149685 166.012 0.261632 166.683 0.783786C167.01 1.06134 167.266 1.41162 167.433 1.80642C167.599 2.20122 167.67 2.6295 167.64 3.05678V19.5164H180.041C180.803 19.5074 181.54 19.7875 182.104 20.3002C182.381 20.5652 182.599 20.8859 182.744 21.2411C182.889 21.5964 182.957 21.9782 182.943 22.3615V22.3615Z" fill="#1D1D1B"/>
<path d="M214.2 10.7771C214.148 13.9134 214.571 17.0394 215.455 20.0494C216.247 22.6421 217.513 25.0657 219.188 27.1975C220.934 29.3734 223.027 31.2458 225.385 32.7389C228.104 34.4706 230.973 35.9553 233.958 37.1752C236.049 38.0426 236.834 39.4534 236.311 41.4077C236.203 41.839 236.002 42.2418 235.723 42.5882C235.444 42.9347 235.093 43.2165 234.695 43.4142C234.216 43.6177 233.701 43.7226 233.181 43.7226C232.661 43.7226 232.146 43.6177 231.667 43.4142C229.359 42.7198 227.154 41.7208 225.11 40.4436C223.042 39.1707 221.087 37.7232 219.267 36.1171C217.553 34.5982 215.978 32.93 214.56 31.1322C213.323 29.6081 212.257 27.9521 211.384 26.1943C210.483 28.0945 209.367 29.8854 208.058 31.5319C206.596 33.3962 204.977 35.1321 203.219 36.7206C201.359 38.3939 199.35 39.8945 197.218 41.2039C195.048 42.5365 192.732 43.6173 190.316 44.4252C189.837 44.6257 189.322 44.729 188.802 44.729C188.282 44.729 187.768 44.6257 187.288 44.4252C186.89 44.2259 186.539 43.9426 186.26 43.5949C185.981 43.2472 185.781 42.8433 185.673 42.4109C185.536 41.9877 185.489 41.5409 185.534 41.0985C185.578 40.6561 185.714 40.2277 185.931 39.8401C186.389 39.0499 187.124 38.4577 187.994 38.1784C190.945 37.0764 193.767 35.6572 196.41 33.946C198.756 32.4366 200.834 30.548 202.56 28.3575C204.239 26.1834 205.519 23.7286 206.34 21.1075C207.256 18.0768 207.696 14.9223 207.642 11.7569V3.52706C207.611 3.10516 207.677 2.68173 207.835 2.28913C207.992 1.89654 208.238 1.54517 208.552 1.2619C209.213 0.720263 210.051 0.441206 210.905 0.478113C211.757 0.460589 212.588 0.737467 213.258 1.2619C213.585 1.53744 213.842 1.88625 214.009 2.27989C214.175 2.67353 214.246 3.10086 214.215 3.52706L214.2 10.7771Z" fill="#1D1D1B"/>
<path d="M257.088 3.02543C257.061 2.60818 257.128 2.19023 257.285 1.80231C257.441 1.41439 257.682 1.06635 257.99 0.783786C258.653 0.245386 259.49 -0.0332488 260.343 -4.64784e-06C261.194 -0.0149685 262.025 0.261632 262.696 0.783786C263.023 1.06134 263.279 1.41162 263.446 1.80642C263.612 2.20122 263.683 2.6295 263.653 3.05678V45.4598C263.683 45.886 263.612 46.3131 263.446 46.7066C263.279 47.1002 263.023 47.4491 262.696 47.725C262.025 48.2472 261.194 48.5238 260.343 48.5088C259.49 48.542 258.653 48.2634 257.99 47.725C257.678 47.4406 257.434 47.0889 257.278 46.6964C257.121 46.3039 257.057 45.8811 257.088 45.4598V3.02543Z" fill="#1D1D1B"/>
<path d="M287.858 38.9857C287.821 39.2716 287.842 39.5621 287.92 39.8396C287.998 40.1172 288.132 40.3759 288.313 40.6004C288.67 40.8847 289.12 41.0271 289.576 41.0001H319.107C319.872 40.9883 320.613 41.2687 321.178 41.7839C321.734 42.3669 322.044 43.1416 322.044 43.9471C322.044 44.7527 321.734 45.5273 321.178 46.1104C320.611 46.6222 319.871 46.902 319.107 46.8942H288.549C287.218 46.9491 285.892 46.7081 284.666 46.1888C283.778 45.7901 283.012 45.1625 282.446 44.3704C281.937 43.6171 281.609 42.7558 281.489 41.8544C281.358 40.9196 281.292 39.9768 281.293 39.0328V9.06846C281.292 8.12447 281.358 7.18159 281.489 6.24681C281.609 5.34542 281.937 4.48413 282.446 3.73084C283.012 2.93875 283.778 2.31118 284.666 1.91245C285.892 1.39308 287.218 1.15215 288.549 1.20704H316.276C317.038 1.19651 317.776 1.47681 318.338 1.99083C318.636 2.2596 318.871 2.59079 319.025 2.96071C319.18 3.33062 319.251 3.73011 319.233 4.13058C319.251 4.53105 319.18 4.93053 319.025 5.30045C318.871 5.67036 318.636 6.00156 318.338 6.27033C317.776 6.78435 317.038 7.06464 316.276 7.05412H289.56C289.105 7.02714 288.655 7.16951 288.298 7.45385C288.116 7.67825 287.983 7.93704 287.905 8.21457C287.826 8.49209 287.805 8.78257 287.843 9.06846V20.9507H316.079C316.841 20.9425 317.578 21.2225 318.142 21.7345C318.437 22.0091 318.667 22.3455 318.816 22.7195C318.966 23.0935 319.03 23.4959 319.005 23.8978C319.03 24.2996 318.966 24.702 318.816 25.076C318.667 25.4501 318.437 25.7864 318.142 26.061C317.58 26.5764 316.842 26.8569 316.079 26.8448H287.858V38.9857Z" fill="#1D1D1B"/>
<path d="M369 25.0813C369.024 25.4843 368.96 25.8877 368.811 26.2629C368.662 26.6381 368.432 26.9759 368.137 27.2524C367.574 27.7651 366.836 28.0451 366.074 28.0362H352.662V47.6466C352.693 48.0741 352.623 48.503 352.457 48.8981C352.291 49.2932 352.033 49.6433 351.705 49.9196C351.034 50.4429 350.203 50.7197 349.352 50.7034C348.511 50.7292 347.69 50.4509 347.038 49.9196C346.724 49.6341 346.48 49.2812 346.322 48.8875C346.164 48.4938 346.098 48.0696 346.128 47.6466V3.02543C346.101 2.60885 346.167 2.19145 346.322 1.80365C346.476 1.41585 346.716 1.06744 347.022 0.783791C347.674 0.252506 348.496 -0.0258211 349.336 9.57864e-08C350.187 -0.0162374 351.018 0.260501 351.689 0.783791C352.017 1.06013 352.275 1.41021 352.441 1.80532C352.608 2.20042 352.678 2.6293 352.646 3.05678V22.1656H366.059C366.821 22.1566 367.558 22.4367 368.121 22.9494C368.415 23.2191 368.645 23.5497 368.797 23.918C368.949 24.2863 369.018 24.6834 369 25.0813V25.0813Z" fill="#1D1D1B"/>
</g>
<defs>
<clipPath id="clip0_44_8">
<rect width="369" height="94" fill="white"/>
</clipPath>
</defs>
</svg>
