<svg width="18" height="18" viewBox="0 0 18 18" fill="none" xmlns="http://www.w3.org/2000/svg">
<path d="M3.95169 2.99874C3.81949 3.22717 3.74992 3.48643 3.75 3.75035V14.2497C3.74992 14.5136 3.81949 14.7728 3.95169 15.0013C4.08388 15.2297 4.27402 15.4192 4.50291 15.5507C4.73179 15.6821 4.99132 15.7509 5.25528 15.75C5.51924 15.7491 5.77829 15.6786 6.00628 15.5456L15.0074 10.2959C15.2343 10.1638 15.4225 9.97441 15.5532 9.74675C15.6839 9.51909 15.7526 9.26112 15.7524 8.9986C15.7522 8.73609 15.683 8.47823 15.5519 8.2508C15.4208 8.02337 15.2322 7.83434 15.0051 7.70259L6.00628 2.45443C5.77829 2.32142 5.51924 2.2509 5.25528 2.25001C4.99132 2.24911 4.73179 2.31787 4.50291 2.44933C4.27402 2.58079 4.08388 2.77031 3.95169 2.99874Z" stroke="#22211E" stroke-width="2" stroke-linecap="round"/>
</svg>
